<?xml version="1.0"?>
<svg xmlns="http://www.w3.org/2000/svg" viewBox="0 0 64 64" width="512" height="512"><g id="Giftbox_and_mail" data-name="Giftbox and mail"><path d="M61,12H48.46A5.994,5.994,0,1,0,39,4.69,5.995,5.995,0,1,0,29.54,12H17a1,1,0,0,0-1,1V23a1,1,0,0,0,1,1h2V34H3a1,1,0,0,0-1,1V61a1,1,0,0,0,1,1H47a1,1,0,0,0,1-1V58H58a1,1,0,0,0,1-1V24h2a1,1,0,0,0,1-1V13A1,1,0,0,0,61,12ZM44,4a4,4,0,0,1,0,8H40V8A4,4,0,0,1,44,4ZM17.259,46.614a5.012,5.012,0,0,0,.228,2.611L4,59.036V36.965Zm12.694,3.019L25,54.586l-4.953-4.953a3,3,0,0,1,0-4.24,2.984,2.984,0,0,1,4.238,0,1.029,1.029,0,0,0,1.422,0,3.053,3.053,0,0,1,4.242,0A3,3,0,0,1,29.953,49.633Zm-11.414,1.3c.035.037.058.079.094.115l5.66,5.66a1,1,0,0,0,1.414,0l5.66-5.66c.036-.036.059-.078.094-.115L43.925,60H6.075Zm13.974-1.707a5.016,5.016,0,0,0,.229-2.612L46,36.965V59.036Zm-.553-4.516a4.95,4.95,0,0,0-4.13-2.2,4.938,4.938,0,0,0-2.83.879,4.988,4.988,0,0,0-6.367.594,5.008,5.008,0,0,0-.593.726L6.074,36H43.926ZM41,34H37V14h4ZM30,8a4,4,0,0,1,8,0v4H34A4,4,0,0,1,30,8ZM18,14H35v8H18Zm3,10H35V34H21ZM57,56H48V35a1,1,0,0,0-1-1H43V24H57Zm3-34H43V14H60Z" fill="#E87D1B" /></g></svg>
